<svg xmlns="http://www.w3.org/2000/svg" xmlns:xlink="http://www.w3.org/1999/xlink" fill="none" version="1.1" width="16" height="16" viewBox="0 0 16 16"><defs><clipPath id="master_svg0_1_4784"><rect x="0" y="0" width="16" height="16" rx="0"/></clipPath><clipPath id="master_svg1_1_4785"><rect x="1" y="1" width="14" height="13.98634147644043" rx="0"/></clipPath></defs><g clip-path="url(#master_svg0_1_4784)"><g clip-path="url(#master_svg1_1_4785)"><g></g><g></g><g><path d="M14.407077875,3.7902927L11.616782875,3.7902927L11.616782875,2.3951464C11.616782875,1.62781584,10.995943075,1,10.221636775,1L5.757169675,1C4.989839275,1,4.362023375,1.62781584,4.362023375,2.3951464L4.362023375,3.7902927L1.5717306149999999,3.7902927C1.4182645649999999,3.7902927,1.2787498849999999,3.8530741,1.174113885,3.9507344C1.076453455,4.048394699999999,1.013671875,4.187909400000001,1.013671875,4.3483515C1.013671875,4.655283,1.264798195,4.90641,1.571730435,4.90641L2.4646240749999997,4.90641L2.938973775,13.556316C2.938973775,14.330623,3.531911175,14.951464,4.271338975,14.951464L11.714442875,14.951464C12.446894875,14.951464,13.039831875,14.330623,13.039831875,13.556316L13.514181875,4.90641L14.414048875,4.90641C14.567516875,4.90641,14.707032875,4.8436277,14.811668875,4.7459674C14.909328875,4.6413317,14.972110875,4.5018167,14.972110875,4.3483505000000005C14.965135875,4.0414186,14.714007875,3.790292,14.407077875,3.7902927ZM5.478140375,2.3951464C5.478140375,2.2416803,5.603702975,2.1161171000000003,5.757169675,2.1161171000000003L10.221636775,2.1161171000000003C10.375103975,2.1161171000000003,10.500666575,2.2416803,10.500666575,2.3951464L10.500666575,3.7902927L5.478140375,3.7902927L5.478140375,2.3951464ZM11.923715875,13.50051L11.923715875,13.563292C11.923715875,13.730709,11.812103875,13.84232,11.714442875,13.84232L4.264363075,13.84232C4.159727075,13.84232,4.048114975,13.730709,4.048114975,13.563292L4.048114975,13.50051L3.587716775,4.90641L3.587716775,4.8994339L12.391089875,4.8994339L12.391089875,4.90641L11.923715875,13.50051Z" fill="#39CDB9" fill-opacity="1" style="mix-blend-mode:passthrough"/></g><g><path d="M6.587355315,11.819402199999999C6.280422925,11.819402199999999,6.029296875,11.5682764,6.029296875,11.261343499999999L6.029296875,7.3549335C6.029296875,7.04800108,6.280422925,6.796875,6.587355315,6.796875C6.894287705,6.796875,7.145413775,7.04800162,7.145413775,7.3549335L7.145413775,11.261343499999999C7.145413775,11.568275,6.901263175,11.819402199999999,6.587355315,11.819402199999999ZM9.377648075,11.819402199999999C9.070715675,11.819402199999999,8.819589575,11.5682764,8.819589575,11.261343499999999L8.819589575,7.3549335C8.819589575,7.04800108,9.070715675,6.796875,9.377648075,6.796875C9.684580375,6.796875,9.935706875000001,7.04800162,9.935706875000001,7.3549335L9.935706875000001,11.261343499999999C9.935706875000001,11.568275,9.691555975,11.819402199999999,9.377648075,11.819402199999999Z" fill="#39CDB9" fill-opacity="1" style="mix-blend-mode:passthrough"/></g></g></g></svg>