<svg xmlns="http://www.w3.org/2000/svg" xmlns:xlink="http://www.w3.org/1999/xlink" fill="none" version="1.1" width="66" height="66" viewBox="0 0 66 66"><defs><clipPath id="master_svg0_1_8641"><rect x="9" y="8" width="48" height="48" rx="0"/></clipPath><linearGradient x1="0.36395263671875" y1="1" x2="0.63507080078125" y2="0.3428141176700592" id="master_svg1_1_2441"><stop offset="0%" stop-color="#3ACBBE" stop-opacity="1"/><stop offset="100%" stop-color="#2CDB90" stop-opacity="1"/></linearGradient></defs><g><g><rect x="0" y="0" width="66" height="66" rx="8" fill="#FFFFFF" fill-opacity="0"/></g><g><g clip-path="url(#master_svg0_1_8641)"><g><g><ellipse cx="33.000285148620605" cy="32" rx="24" ry="24" fill="url(#master_svg1_1_2441)" fill-opacity="1" style="mix-blend-mode:passthrough"/></g></g><g><g style="opacity:0.9990000128746033;"><path d="M53.6015625,43.78803525390625C53.4974625,44.01173525390625,53.3803625,44.23043525390625,53.2499625,44.44423525390625C52.9830625,44.885535253906255,52.6939625,45.307335253906245,52.3827625,45.70993525390625C51.9353625,45.35303525390625,51.4353625,45.07963525390625,50.8827625,44.88963525390625C50.1694625,44.700135253906254,49.4585625,44.50483525390625,48.7499625,44.30363525390625C49.0318625,41.60323525390625,48.4380625,39.11883525390625,46.9687625,36.85052525390625C45.0159625,33.93152525390625,42.336262500000004,32.01747525390625,38.9296625,31.10833525390625C35.2645625,30.47861525390625,31.9833625,31.32236525390625,29.0859625,33.63958525390625C28.3107625,34.27408525390625,27.6154625,34.98503525390625,26.999962500000002,35.772395253906254C26.1911625,36.91722525390625,25.3551625,38.04222525390625,24.4921625,39.14743525390625C23.5375625,38.52874525390625,22.615762500000002,37.86466525390625,21.7265625,37.155205253906246C20.1772525,36.23210525390625,18.6929025,36.32585525390625,17.2734425,37.436455253906246C16.4707025,38.12795525390625,15.9785125,38.99513525390625,15.7968725,40.03803525390625C15.7485025,40.47003525390625,15.7953725,40.891935253906254,15.9375025,41.30363525390625C16.2344025,41.99923525390625,16.5078325,42.70233525390625,16.7578125,43.41303525390625C15.474282500000001,43.843735253906246,14.3648925,44.54683525390625,13.4296825,45.52243525390625C13.0149845,44.981835253906254,12.6556075,44.40373525390625,12.3515625,43.78803525390625C12.8900715,43.33453525390625,13.4760125,42.94393525390625,14.1093725,42.61613525390625C13.9256725,42.06883525390625,13.7850425,41.50633525390625,13.6875025,40.92863525390625C13.6562525,40.53803525390625,13.6562525,40.14733525390625,13.6875025,39.75673525390625C13.9897525,37.48811525390625,15.1850625,35.88653525390625,17.2734425,34.95208525390625C19.8165025,34.045005253906254,22.0586725,34.52158525390625,23.999962500000002,36.38177525390625C25.8556625,32.87884525390625,28.6760625,30.52731525390625,32.4609625,29.32708425390625C36.6625625,28.16083425390625,40.6313625,28.69206905390625,44.3671625,30.92083525390625C48.4145625,33.57456525390625,50.5239625,37.332345253906254,50.6953625,42.19423525390625C51.1473625,42.33423525390625,51.5848625,42.513935253906254,52.0077625,42.73333525390625C52.5658625,43.050935253906246,53.0971625,43.40253525390625,53.6015625,43.78803525390625Z" fill-rule="evenodd" fill="#FEFEFE" fill-opacity="1" style="mix-blend-mode:passthrough"/></g></g><g><g style="opacity:0.9990000128746033;"><path d="M36.0234625,55.5546375C33.9766825,55.8040375,31.929792499999998,55.8040375,29.8828125,55.5546375C28.0377225,53.4753375,26.1939825,51.3972375,24.3515625,49.3203175C25.7890825,49.2890475,27.2265425,49.2578275,28.6640625,49.2265575C28.6640625,45.9921875,28.6640625,42.7578175,28.6640625,39.5234375C31.5390425,39.5234375,34.4140625,39.5234375,37.2890625,39.5234375C37.2890625,42.7734175,37.2890625,46.0234575,37.2890625,49.2734375C38.7110625,49.2656075,40.1328625,49.2734375,41.5546625,49.2968775C39.7050625,51.3799375,37.8613625,53.4658375,36.0234625,55.5546375Z" fill-rule="evenodd" fill="#FEFEFE" fill-opacity="1" style="mix-blend-mode:passthrough"/></g></g><g><g><path d="M28.6640675,49.2266788453125C27.2265475,49.2579440953125,25.7890775,49.2891635953125,24.3515625,49.3204288953125C24.3261094,49.3176164953125,24.31049967,49.3020066953125,24.3046875,49.2735538953125C25.7574875,49.2266788453125,27.210607500000002,49.2110691053125,28.6640675,49.2266788453125Z" fill-rule="evenodd" fill="#ADE2B5" fill-opacity="1" style="mix-blend-mode:passthrough"/></g></g></g></g></g></svg>