<svg xmlns="http://www.w3.org/2000/svg" xmlns:xlink="http://www.w3.org/1999/xlink" fill="none" version="1.1" width="20" height="20" viewBox="0 0 20 20"><defs><clipPath id="master_svg0_1_4880"><rect x="2" y="2" width="16" height="16" rx="0"/></clipPath><clipPath id="master_svg1_1_4881"><rect x="3" y="3" width="14" height="13.98634147644043" rx="0"/></clipPath></defs><g><g></g><g clip-path="url(#master_svg0_1_4880)"><g clip-path="url(#master_svg1_1_4881)"><g><path d="M5.587890625,6.90625L14.391263925,6.90625L14.391263925,6.9132257244L5.587890625,6.9132257244L5.587890625,6.90625Z" fill="#000000" fill-opacity="1" style="mix-blend-mode:passthrough"/></g><g><path d="M6.3623846875000005,6.90678420625L13.6171445875,6.91375980625L13.6171445875,6.90678420625L6.3623846875000005,6.90678420625ZM4.4091796875,5.79066713065L6.3623846875000005,5.79764285525L6.3623846875000005,5.79066713065L4.4091796875,5.79066713065ZM13.6171445875,5.79066713065L15.5703506875,5.79764285525L15.5703506875,5.79066713065L13.6171445875,5.79066713065ZM7.4785015875,5.79066713065L12.5010289875,5.79066713065L12.5010289875,5.78369140625L7.4785015875,5.79066713065Z" fill="#000000" fill-opacity="1" style="mix-blend-mode:passthrough"/></g><g><path d="M16.407077875,5.7902927L13.616782875,5.7902927L13.616782875,4.3951464C13.616782875,3.6278158400000002,12.995943075,3,12.221636775,3L7.757169675,3C6.989839275,3,6.362023375,3.6278158400000002,6.362023375,4.3951464L6.362023375,5.7902927L3.571730615,5.7902927C3.418264565,5.7902927,3.278749885,5.853074100000001,3.174113885,5.9507344C3.0764534550000002,6.048394699999999,3.013671875,6.187909400000001,3.013671875,6.3483515C3.013671875,6.655283,3.264798195,6.90641,3.571730435,6.90641L4.464624075,6.90641L4.938973775,15.556316C4.938973775,16.330623,5.531911174999999,16.951464,6.271338975,16.951464L13.714442875,16.951464C14.446894875,16.951464,15.039831875,16.330623,15.039831875,15.556316L15.514181875,6.90641L16.414048875,6.90641C16.567516875000003,6.90641,16.707032875,6.8436277,16.811668875000002,6.7459674C16.909328875,6.6413317,16.972110875,6.5018167,16.972110875,6.3483505000000005C16.965135875,6.0414186,16.714007875,5.790292,16.407077875,5.7902927ZM7.478140375,4.3951464C7.478140375,4.2416803000000005,7.603702975,4.1161171,7.757169675,4.1161171L12.221636775,4.1161171C12.375103975,4.1161171,12.500666575,4.2416803000000005,12.500666575,4.3951464L12.500666575,5.7902927L7.478140375,5.7902927L7.478140375,4.3951464ZM13.923715875,15.50051L13.923715875,15.563292C13.923715875,15.730709,13.812103875,15.84232,13.714442875,15.84232L6.264363075,15.84232C6.159727075,15.84232,6.048114975,15.730709,6.048114975,15.563292L6.048114975,15.50051L5.5877167750000005,6.90641L5.5877167750000005,6.8994339L14.391089875,6.8994339L14.391089875,6.90641L13.923715875,15.50051Z" fill="#FFFFFE" fill-opacity="1" style="mix-blend-mode:passthrough"/></g><g><path d="M8.587355315,13.819402199999999C8.280422925,13.819402199999999,8.029296875,13.5682764,8.029296875,13.261343499999999L8.029296875,9.3549335C8.029296875,9.04800108,8.280422925,8.796875,8.587355315,8.796875C8.894287705,8.796875,9.145413775,9.04800162,9.145413775,9.3549335L9.145413775,13.261343499999999C9.145413775,13.568275,8.901263175,13.819402199999999,8.587355315,13.819402199999999ZM11.377648075,13.819402199999999C11.070715675,13.819402199999999,10.819589575,13.5682764,10.819589575,13.261343499999999L10.819589575,9.3549335C10.819589575,9.04800108,11.070715675,8.796875,11.377648075,8.796875C11.684580375,8.796875,11.935706875000001,9.04800162,11.935706875000001,9.3549335L11.935706875000001,13.261343499999999C11.935706875000001,13.568275,11.691555975,13.819402199999999,11.377648075,13.819402199999999Z" fill="#FFFFFE" fill-opacity="1" style="mix-blend-mode:passthrough"/></g></g></g><g></g></g></svg>