<svg xmlns="http://www.w3.org/2000/svg" xmlns:xlink="http://www.w3.org/1999/xlink" fill="none" version="1.1" width="20" height="20" viewBox="0 0 20 20"><defs><clipPath id="master_svg0_1_4866"><rect x="0" y="0" width="20" height="20" rx="0"/></clipPath></defs><g clip-path="url(#master_svg0_1_4866)"><g><path d="M6.458075525,9.999704725Q6.458075525,10.071365625,6.451051425,10.142681225Q6.444027425,10.213996925,6.430046325,10.284280625000001Q6.416065925,10.354564525,6.395263225,10.423139525Q6.3744607250000005,10.491714725,6.3470363249999995,10.557920424999999Q6.319612525,10.624126425,6.285830725,10.687325725Q6.252049425,10.750525025,6.212235424999999,10.810108625Q6.172421925,10.869692525,6.126959825,10.925087225Q6.081497425,10.980481625,6.030824225,11.031153425Q5.980151225,11.081825225,5.924755125,11.127286425Q5.869359025,11.172747625,5.8097737249999994,11.212559925Q5.750188625,11.252372725,5.686987925,11.286153525Q5.623786925,11.319934325,5.557579325,11.347357525Q5.491371825,11.374781125,5.422794925,11.395583125Q5.354218225,11.416385125,5.283932425,11.430365525Q5.213646925,11.444345925,5.142329325,11.451370025Q5.071011825,11.458393825,4.999349125,11.458393825Q4.927686525,11.458393825,4.856369025,11.451370025Q4.785051425,11.444345925,4.714765625,11.430365325Q4.644480125,11.416385125,4.5759033250000005,11.395583125Q4.507326365,11.374781125,4.441118655,11.347357225Q4.374911065,11.319934125,4.311710235,11.286153325Q4.248509405,11.252372725,4.188924075,11.212560225Q4.129338865,11.172747625,4.073942895,11.127286425Q4.018546935,11.081825225,3.967873755,11.031153425Q3.917200655,10.980481625,3.871738345,10.925087225Q3.826276065,10.869692525,3.786462415,10.810108625Q3.746648805,10.750525025,3.712867255,10.687325725Q3.679085735,10.624126425,3.651661625,10.557920424999999Q3.624237537,10.491714725,3.603434969,10.423139525Q3.582632408,10.354564625,3.568651723,10.284280825Q3.554671041,10.213997025,3.547646876,10.142681325Q3.54062271118,10.071365625,3.54062271118,9.999704725Q3.54062271118,9.928043825,3.5476468774,9.856728125Q3.554671044,9.785412325,3.568651728,9.715128425Q3.582632415,9.644844625,3.60343498,9.576269525Q3.624237545,9.507694485,3.651661645,9.441488445Q3.679085745,9.375282525,3.712867285,9.312083365Q3.746648815,9.248884205,3.786462425,9.189300415Q3.826276095,9.129716695,3.871738375,9.074322165Q3.917200685,9.018927635,3.967873785,8.968255725Q4.018546935,8.917583945,4.073942895,8.872122795Q4.129338865,8.826661645,4.188924075,8.786849035Q4.248509405,8.747036444999999,4.311710175,8.713255765Q4.374911015,8.679475115,4.441118595,8.652051705Q4.507326245,8.624628313,4.575903225,8.603826277Q4.644480025,8.583024248,4.714765625,8.569043921Q4.785051425,8.555063596,4.856369025,8.5480396105Q4.927686525,8.541015625,4.999349125,8.541015625Q5.071011825,8.541015625,5.142329325,8.5480396105Q5.213646925,8.555063596,5.283932425,8.569043921Q5.354218225,8.583024248,5.422795025,8.603826277Q5.491371825,8.624628313,5.557579325,8.652051705Q5.623786925,8.679475115,5.686987925,8.713255775Q5.750188625,8.747036444999999,5.8097737249999994,8.786849035Q5.869359025,8.826661645,5.924755125,8.872122795Q5.980151225,8.917583945,6.030824225,8.968255725Q6.081497425,9.018927635,6.126959825,9.074322165Q6.172421925,9.129716695,6.212235424999999,9.189300415Q6.252049425,9.248884205,6.285830725,9.312083365Q6.319612525,9.375282525,6.3470363249999995,9.441488445Q6.3744607250000005,9.507694485,6.395263425,9.576269525Q6.416066125,9.644844625,6.430046525,9.715128425Q6.444027425,9.785412325,6.451051425,9.856728125Q6.458075525,9.928043825,6.458075525,9.999704725Z" fill="#FFFFFE" fill-opacity="1" style="mix-blend-mode:passthrough"/></g><g><path d="M11.457681925,10.0003252875Q11.457681925,10.0719686875,11.450659725,10.1432669875Q11.443637325000001,10.2145652875,11.429660325,10.2848318875Q11.415683525,10.3550986875,11.394886525,10.4236569875Q11.374089525,10.4922152875,11.346672524999999,10.5584048875Q11.319256025,10.624594887499999,11.285483625,10.6877786875Q11.251711325,10.7509624875,11.211908325,10.8105315875Q11.172105825,10.870100987499999,11.126655625,10.9254819875Q11.081205825,10.9808630875,11.030545925,11.0315222875Q10.979886525,11.082181887499999,10.924505425,11.1276318875Q10.869124424999999,11.1730818875,10.809555025,11.2128846875Q10.749985925,11.2526876875,10.686802125,11.2864601875Q10.623618324999999,11.3202325875,10.557428325,11.347649087499999Q10.491238725,11.3750660875,10.422680425,11.3958630875Q10.354122125,11.4166600875,10.283855425,11.4306368875Q10.213588825,11.444613887500001,10.142290625,11.4516362875Q10.070992125,11.4586584875,9.999348725,11.4586584875Q9.927705525,11.4586584875,9.856407125,11.4516362875Q9.785108825,11.444613887500001,9.714842125,11.4306368875Q9.644575325,11.4166600875,9.576017025,11.3958630875Q9.507458685,11.3750660875,9.441268805,11.347649087499999Q9.375079035,11.3202325875,9.311895315,11.2864601875Q9.248711525000001,11.2526878875,9.189142225,11.2128848875Q9.129572985,11.1730823875,9.074191985,11.1276321875Q9.018810955,11.0821823875,8.968151474999999,11.0315224875Q8.917492035,10.9808630875,8.872041975,10.9254819875Q8.826591935,10.870100987499999,8.786789025,10.8105315875Q8.746986155,10.7509624875,8.713213745000001,10.6877786875Q8.679441315,10.624594887499999,8.652024605,10.5584048875Q8.624607906,10.4922152875,8.603810951,10.4236569875Q8.583013996,10.3550986875,8.569037082,10.2848319875Q8.555060169,10.2145653875,8.5480378969,10.1432671875Q8.541015625,10.0719686875,8.541015625,10.0003252875Q8.541015625,9.9286820875,8.5480378969,9.8573836875Q8.555060169,9.7860853875,8.569037082,9.7158186875Q8.583013996,9.6455518875,8.603810951,9.5769935875Q8.624607906,9.5084352475,8.652024605,9.4422453675Q8.679441315,9.3760555975,8.713213745000001,9.3128718775Q8.746986165,9.249688087500001,8.786789045,9.1901187875Q8.826591935,9.1305495475,8.872041975,9.0751685475Q8.917492035,9.0197875175,8.968151474999999,8.969128037499999Q9.018810955,8.9184685975,9.074191985,8.8730185375Q9.129572985,8.8275684975,9.189142225,8.7877655875Q9.248711465,8.7479627175,9.311895255,8.714190307500001Q9.375079035,8.6804178775,9.441268745,8.6530011675Q9.507458625,8.6255844685,9.576017025,8.6047875135Q9.644575325,8.5839905585,9.714842125,8.5700136445Q9.785108825,8.5560367315,9.856407125,8.5490144594Q9.927705525,8.5419921875,9.999348725,8.5419921875Q10.070992125,8.5419921875,10.142290425,8.5490144594Q10.213588725,8.5560367315,10.283855325,8.5700136445Q10.354122125,8.5839905585,10.422680425,8.6047875135Q10.491238725,8.6255844685,10.557428325,8.6530011675Q10.623618324999999,8.6804178775,10.686802125,8.714190307500001Q10.749985925,8.7479627275,10.809555025,8.7877656075Q10.869124424999999,8.8275684975,10.924505425,8.8730185375Q10.979886525,8.9184685975,11.030545725,8.969128037499999Q11.081205324999999,9.0197875175,11.126655325,9.0751685475Q11.172105325,9.1305495475,11.211908125,9.1901187875Q11.251711125,9.2496880275,11.285483625,9.3128718175Q11.319256025,9.3760555975,11.346672524999999,9.4422453075Q11.374089525,9.5084351875,11.394886525,9.5769935875Q11.415683525,9.6455518875,11.429660325,9.7158186875Q11.443637325000001,9.7860853875,11.450659725,9.8573836875Q11.457681925,9.9286820875,11.457681925,10.0003252875Z" fill="#FFFFFE" fill-opacity="1" style="mix-blend-mode:passthrough"/></g><g><path d="M16.457681925,10.0003252875Q16.457681925,10.0719686875,16.450659725,10.1432669875Q16.443637325,10.2145652875,16.429660325,10.2848318875Q16.415683525,10.3550986875,16.394886525,10.4236569875Q16.374089525,10.4922152875,16.346672525,10.5584048875Q16.319256025,10.624594887499999,16.285483625,10.6877786875Q16.251711325,10.7509624875,16.211908325,10.8105315875Q16.172105825,10.870100987499999,16.126655625,10.9254819875Q16.081205825,10.9808630875,16.030545925,11.0315222875Q15.979886525,11.082181887499999,15.924505425,11.1276318875Q15.869124424999999,11.1730818875,15.809555025,11.2128846875Q15.749985925,11.2526876875,15.686802125,11.2864601875Q15.623618324999999,11.3202325875,15.557428325,11.347649087499999Q15.491238725,11.3750660875,15.422680425,11.3958630875Q15.354122125,11.4166600875,15.283855425,11.4306368875Q15.213588825,11.444613887500001,15.142290625,11.4516362875Q15.070992125,11.4586584875,14.999348725,11.4586584875Q14.927705525,11.4586584875,14.856407125,11.4516362875Q14.785108825,11.444613887500001,14.714842125,11.4306368875Q14.644575325,11.4166600875,14.576017025,11.3958630875Q14.507458685,11.3750660875,14.441268805,11.347649087499999Q14.375079035,11.3202325875,14.311895315,11.2864601875Q14.248711525000001,11.2526878875,14.189142225,11.2128848875Q14.129572985,11.1730823875,14.074191985,11.1276321875Q14.018810955,11.0821823875,13.968151474999999,11.0315224875Q13.917492035,10.9808630875,13.872041975,10.9254819875Q13.826591935,10.870100987499999,13.786789025,10.8105315875Q13.746986155,10.7509624875,13.713213745000001,10.6877786875Q13.679441315,10.624594887499999,13.652024605,10.5584048875Q13.624607906,10.4922152875,13.603810951,10.4236569875Q13.583013996,10.3550986875,13.569037082,10.2848319875Q13.555060169,10.2145653875,13.5480378969,10.1432671875Q13.541015625,10.0719686875,13.541015625,10.0003252875Q13.541015625,9.9286820875,13.5480378969,9.8573836875Q13.555060169,9.7860853875,13.569037082,9.7158186875Q13.583013996,9.6455518875,13.603810951,9.5769935875Q13.624607906,9.5084352475,13.652024605,9.4422453675Q13.679441315,9.3760555975,13.713213745000001,9.3128718775Q13.746986165,9.249688087500001,13.786789045,9.1901187875Q13.826591935,9.1305495475,13.872041975,9.0751685475Q13.917492035,9.0197875175,13.968151474999999,8.969128037499999Q14.018810955,8.9184685975,14.074191985,8.8730185375Q14.129572985,8.8275684975,14.189142225,8.7877655875Q14.248711465,8.7479627175,14.311895255,8.714190307500001Q14.375079035,8.6804178775,14.441268745,8.6530011675Q14.507458625,8.6255844685,14.576017025,8.6047875135Q14.644575325,8.5839905585,14.714842125,8.5700136445Q14.785108825,8.5560367315,14.856407125,8.5490144594Q14.927705525,8.5419921875,14.999348725,8.5419921875Q15.070992125,8.5419921875,15.142290425,8.5490144594Q15.213588725,8.5560367315,15.283855325,8.5700136445Q15.354122125,8.5839905585,15.422680425,8.6047875135Q15.491238725,8.6255844685,15.557428325,8.6530011675Q15.623618324999999,8.6804178775,15.686802125,8.714190307500001Q15.749985925,8.7479627275,15.809555025,8.7877656075Q15.869124424999999,8.8275684975,15.924505425,8.8730185375Q15.979886525,8.9184685975,16.030545725,8.969128037499999Q16.081205325,9.0197875175,16.126655325,9.0751685475Q16.172105325,9.1305495475,16.211908125,9.1901187875Q16.251711125,9.2496880275,16.285483625,9.3128718175Q16.319256025,9.3760555975,16.346672525,9.4422453075Q16.374089525,9.5084351875,16.394886525,9.5769935875Q16.415683525,9.6455518875,16.429660325,9.7158186875Q16.443637325,9.7860853875,16.450659725,9.8573836875Q16.457681925,9.9286820875,16.457681925,10.0003252875Z" fill="#FFFFFE" fill-opacity="1" style="mix-blend-mode:passthrough"/></g></g></svg>