<svg xmlns="http://www.w3.org/2000/svg" xmlns:xlink="http://www.w3.org/1999/xlink" fill="none" version="1.1" width="20" height="20" viewBox="0 0 20 20"><defs><clipPath id="master_svg0_1_4888"><rect x="2" y="2" width="16" height="16" rx="0"/></clipPath></defs><g><g></g><g clip-path="url(#master_svg0_1_4888)"><g><path d="M12.8443293375,4.57733953C12.8443293375,4.13566598,13.2034464375,3.77734375,13.644324337499999,3.77734375C14.0861249375,3.77734375,14.4443359375,4.13775983,14.4443359375,4.57733953L14.4443359375,15.24397675C14.4443359375,15.68563775,14.085217937500001,16.043972750000002,13.644324337499999,16.043972750000002C13.2025399375,16.043972750000002,12.8443293375,15.68357175,12.8443293375,15.24397675L12.8443293375,4.57733953ZM6.4443359375,4.57733953C6.4443359375,4.13566598,6.8034537475,3.77734375,7.2443456675,3.77734375C7.6861306375,3.77734375,8.0443413375,4.13775983,8.0443413375,4.57733953L8.0443413375,15.24397675C8.0443413375,15.68563775,7.6852232375,16.043972750000002,7.2443456675,16.043972750000002C6.8025606575,16.043972750000002,6.4443359375,15.68357175,6.4443359375,15.24397675L6.4443359375,4.57733953Z" fill="#FFFFFE" fill-opacity="1" style="mix-blend-mode:passthrough"/></g></g><g></g></g></svg>