<svg xmlns="http://www.w3.org/2000/svg" xmlns:xlink="http://www.w3.org/1999/xlink" fill="none" version="1.1" width="20" height="20" viewBox="0 0 20 20"><defs><clipPath id="master_svg0_1_4872"><rect x="2" y="2" width="16" height="16" rx="0"/></clipPath><clipPath id="master_svg1_1_4873"><rect x="1.9990234375" y="2" width="16" height="16" rx="0"/></clipPath></defs><g><g></g><g clip-path="url(#master_svg0_1_4872)"><g clip-path="url(#master_svg1_1_4873)"><g><path d="M15.5990234375,5.400390625C15.8193364375,5.400390625,15.9990244375,5.580078125,15.9990244375,5.800390725L15.9990244375,14.200390825C15.9990244375,14.420703625,15.8193364375,14.600391625,15.5990234375,14.600391625L4.3990235375,14.600391625C4.1787109375,14.600391625,3.9990234375,14.420703625,3.9990234375,14.200390825L3.9990234375,7.2003908249999995C3.9990234375,6.980078225,4.1787109375,6.800390725,4.3990235375,6.800390725L10.4130859375,6.800390725L10.7052741375,6.508203225L11.8130865375,5.400390625L15.5990234375,5.400390625ZM15.5990234375,4.400390625L11.6896486375,4.400390625C11.5037117375,4.400390625,11.3255863375,4.473828129,11.1943359375,4.605078135L9.999023937499999,5.800390725L4.3990235375,5.800390725C3.6255859775,5.800390725,2.9990234375,6.4269533249999995,2.9990234375,7.2003908249999995L2.9990234375,14.200390825C2.9990234375,14.973828625,3.6255859775,15.600391625,4.3990235375,15.600391625L15.5990234375,15.600391625C16.3724614375,15.600391625,16.999024437499997,14.973828625,16.999024437499997,14.200390825L16.999024437499997,5.800390725C16.999024437499997,5.026953165,16.3724614375,4.400390625,15.5990234375,4.400390625Z" fill="#FFFFFE" fill-opacity="1" style="mix-blend-mode:passthrough"/></g><g><path d="M13.9990234375,13.583984375L5.9990234375,13.583984375C5.7224609575,13.583984375,5.4990234375,13.360546885,5.4990234375,13.083984375C5.4990234375,12.807421895,5.7224609575,12.583984375,5.9990234375,12.583984375L13.9990234375,12.583984375C14.2755861375,12.583984375,14.4990234375,12.807421895,14.4990234375,13.083984375C14.4990234375,13.360546885,14.2755861375,13.583984375,13.9990234375,13.583984375Z" fill="#FFFFFE" fill-opacity="1" style="mix-blend-mode:passthrough"/></g></g></g><g></g></g></svg>