<svg xmlns="http://www.w3.org/2000/svg" xmlns:xlink="http://www.w3.org/1999/xlink" fill="none" version="1.1" width="20" height="20" viewBox="0 0 20 20"><g><g></g><g><path d="M16.84375,10C16.84375,6.1340067000000005,13.744721,3,9.921875,3C6.0990286000000005,3,3,6.1340067000000005,3,10C3,13.865993,6.0990286000000005,17,9.921875,17C13.744721,17,16.84375,13.865993,16.84375,10ZM3.95474136,10C3.95474136,6.6672468,6.6263176999999995,3.9655172199999997,9.921875,3.9655172199999997C13.217431,3.9655172199999997,15.889008,6.6672468,15.889008,10C15.889008,13.332752,13.217431,16.034482,9.921875,16.034482C6.6263176999999995,16.034482,3.95474136,13.332752,3.95474136,10ZM9.921875,7.3448277C10.317341299999999,7.3448277,10.6379309,7.0206199,10.6379309,6.6206894C10.6379309,6.2207594,10.317341299999999,5.8965516000000004,9.921875,5.8965516000000004C9.5264077,5.8965516000000004,9.2058191,6.2207594,9.2058191,6.6206894C9.2058191,7.0206199,9.5264077,7.3448277,9.921875,7.3448277ZM9.4445038,13.862068C9.4445038,14.128689,9.6582303,14.344828,9.921875,14.344828C10.1855187,14.344828,10.3992457,14.128689,10.3992457,13.862068L10.3992457,8.551724400000001C10.3992457,8.2851038,10.1855187,8.0689659,9.921875,8.0689659C9.6582303,8.0689659,9.4445038,8.2851038,9.4445038,8.551724400000001L9.4445038,13.862068Z" fill="#FFFFFE" fill-opacity="1" style="mix-blend-mode:passthrough"/><path d="M7.2079058,16.495876000000003Q8.5033803,17.050001,9.921875499999999,17.050001Q11.3403711,17.050001,12.6358452,16.495876000000003Q13.887032,15.960696,14.851933,14.984904Q15.816778,14.009171,16.345923,12.744009Q16.893751,11.4341812,16.893751,10.000000499999999Q16.893751,8.565819699999999,16.345923,7.2559915Q15.816778,5.9908307,14.851933,5.0150959Q13.887032,4.0393038,12.6358452,3.50412351Q11.3403721,2.949999996,9.921875499999999,2.949999996Q8.503378900000001,2.949999996,7.2079053,3.50412363Q5.9567192,4.0393038,4.9918171000000005,5.0150962Q4.0269737,5.9908297,3.49782753,7.2559919Q2.949999966,8.5658207,2.949999996,10.000000499999999Q2.949999996,11.4341822,3.4978272,12.74401Q4.0269725,14.009171,4.991817,14.984904Q5.9567177000000004,15.960696,7.2079058,16.495876000000003ZM12.5965185,16.403935Q11.3198843,16.950001,9.921875499999999,16.950001Q8.5238671,16.950001,7.2472324,16.403935Q6.0140541,15.876458,5.0629234,14.914592Q4.1117355,13.952669,3.59008318,12.7054234Q3.050000004,11.4141111,3.050000004,10.000000499999999Q3.049999937,8.585890299999999,3.59008348,7.2945771Q4.1117356,6.0473327999999995,5.0629234,5.0854089Q6.0140541,4.1235434,7.2472324,3.5960658800000003Q8.5238681,3.050000004,9.921875499999999,3.050000004Q11.3198833,3.050000004,12.5965185,3.59606576Q13.829698,4.1235434,14.780828,5.0854087Q15.732015,6.0473313,16.253667,7.2945766Q16.793751,8.5858908,16.793751,10.000000499999999Q16.793751,11.4141083,16.253667,12.7054224Q15.732014,13.952671,14.780828,14.914592Q13.829698,15.876457,12.5965185,16.403935ZM7.5795341,15.606234Q8.697622800000001,16.084482,9.921875499999999,16.084482Q11.1461277,16.084482,12.2642155,15.606234Q13.344068,15.14434,14.176828,14.302179Q15.009533,13.460075,15.466209,12.368187Q15.939009,11.2377491,15.939009,10.000000499999999Q15.939009,8.762252799999999,15.466209,7.6318145Q15.009533,6.5399244,14.176827,5.6978199Q13.344066,4.8556588000000005,12.2642155,4.3937656Q11.1461296,3.91551727,9.921875499999999,3.9155177500000002Q8.6976199,3.91551763,7.5795336,4.3937658Q6.4996829,4.8556592,5.6669211,5.6978199Q4.8342174,6.539922,4.3775403,7.6318145Q3.9047414099999997,8.762253300000001,3.9047404500000003,10.000000499999999Q3.90474069,11.2377472,4.37754,12.368187Q4.8342161,13.460076,5.6669209,14.302179Q6.4996817,15.14434,7.5795341,15.606234ZM12.2248888,15.514292Q11.1256399,15.984483,9.921875499999999,15.984483Q8.7181096,15.984483,7.6188612,15.514292Q6.5570183,15.060101,5.738027300000001,14.231867Q4.9189789,13.403574,4.4697959,12.3296003Q4.0047406,11.2176771,4.0047405000000005,10.000000499999999Q4.0047414,8.7823229,4.4697963000000005,7.6703997Q4.9189793,6.5964255000000005,5.738027600000001,5.7681328999999995Q6.5570183,4.9398985,7.6188607,4.4857081999999995Q8.7181096,4.0155177,9.921875499999999,4.0155177Q11.1256399,4.0155172,12.2248888,4.4857078999999995Q13.286732,4.9398986,14.105721,5.7681328999999995Q14.924769,6.5964255000000005,15.373953,7.6703997Q15.839008,8.7823238,15.839008,10.000000499999999Q15.839008,11.2176762,15.373953,12.3296003Q14.924768,13.403576,14.105722,14.231867Q13.286733,15.060101,12.2248888,15.514292ZM9.379993899999999,6.0734905999999995Q9.1558194,6.3001955,9.1558194,6.6206896Q9.1558194,6.9411843,9.379993899999999,7.1678891Q9.6044002,7.3948278,9.921875499999999,7.3948278Q10.2393503,7.3948278,10.463756100000001,7.1678886Q10.6879311,6.9411831,10.6879311,6.6206887000000005Q10.6879311,6.3001955,10.463756100000001,6.0734904Q10.2393503,5.8465517,9.921875499999999,5.8465517Q9.6044002,5.8465517,9.379993899999999,6.0734905999999995ZM9.451099899999999,7.0975766Q9.255819299999999,6.9000916,9.255819299999999,6.6206896Q9.255819299999999,6.341287599999999,9.451099899999999,6.1438030999999995Q9.646149600000001,5.946551599999999,9.921875499999999,5.946551599999999Q10.197600399999999,5.946551599999999,10.392650100000001,6.1438033999999995Q10.5879312,6.3412883,10.5879312,6.6206887000000005Q10.5879312,6.9000909,10.392650100000001,7.0975761Q10.197600399999999,7.2948279,9.921875499999999,7.2948279Q9.646149600000001,7.2948279,9.451099899999999,7.0975766ZM9.548770000000001,8.1752062Q9.394504099999999,8.331213,9.394504099999999,8.551724400000001L9.394504099999999,13.862069Q9.394504099999999,14.082581,9.548770000000001,14.238587Q9.7032671,14.394828,9.921875499999999,14.394828Q10.1404829,14.394828,10.294979999999999,14.238587Q10.449245900000001,14.082581,10.449245900000001,13.862069L10.449245900000001,8.551724400000001Q10.449245900000001,8.331213,10.294979999999999,8.1752062Q10.1404834,8.018965699999999,9.921875499999999,8.018965699999999Q9.7032666,8.018965699999999,9.548770000000001,8.1752062ZM9.494504,13.862069L9.494504,8.551724400000001Q9.494504,8.3723054,9.6198759,8.2455187Q9.7450161,8.1189661,9.921875499999999,8.1189661Q10.0987339,8.1189661,10.2238741,8.2455187Q10.349246,8.3723054,10.349246,8.551724400000001L10.349246,13.862069Q10.349246,14.041489,10.2238741,14.168275Q10.0987334,14.294827,9.921875499999999,14.294827Q9.7450171,14.294827,9.6198759,14.168275Q9.494504,14.041489,9.494504,13.862069Z" fill-rule="evenodd" fill="#FFFFFE" fill-opacity="1"/></g><g></g></g></svg>