<svg xmlns="http://www.w3.org/2000/svg" xmlns:xlink="http://www.w3.org/1999/xlink" fill="none" version="1.1" width="16" height="16" viewBox="0 0 16 16"><defs><clipPath id="master_svg0_1_5108"><rect x="0" y="0" width="16" height="16" rx="0"/></clipPath></defs><g clip-path="url(#master_svg0_1_5108)"><g><path d="M10.3999934,2.79999578C10.3999934,2.35832223,10.7591105,2,11.199988399999999,2C11.641789,2,12,2.3604160800000002,12,2.79999578L12,13.466633C12,13.908294,11.640882000000001,14.266629,11.199988399999999,14.266629C10.758204,14.266629,10.3999934,13.906228,10.3999934,13.466633L10.3999934,2.79999578ZM4,2.79999578C4,2.35832223,4.35911781,2,4.80000973,2C5.2417947,2,5.6000054,2.3604160800000002,5.6000054,2.79999578L5.6000054,13.466633C5.6000054,13.908294,5.2408873,14.266629,4.80000973,14.266629C4.35822472,14.266629,4,13.906228,4,13.466633L4,2.79999578Z" fill="#39CDB9" fill-opacity="1" style="mix-blend-mode:passthrough"/></g></g></svg>