<svg xmlns="http://www.w3.org/2000/svg" xmlns:xlink="http://www.w3.org/1999/xlink" fill="none" version="1.1" width="12" height="13.508296966552734" viewBox="0 0 12 13.508296966552734"><g><path d="M1.1323885,13.508297C0.93743527,13.508297,0.74248183,13.456448,0.56619424,13.354822C0.21154511,13.149499,0,12.782407,0,12.373834L0,1.1349809C0,0.7243346,0.21154511,0.3593156,0.56619424,0.1539924C0.92084342,-0.051330797,1.3439337,-0.051330797,1.7006568,0.1539924L11.433805,5.7723818C11.788455,5.9777055,12,6.3447976,12,6.7533703C12,7.1640162,11.788455,7.5290356,11.433805,7.7343583L1.7006568,13.354822C1.5222954,13.456448,1.3273419,13.508297,1.1323885,13.508297ZM1.3273419,1.4709644L1.3273419,12.037849L10.477705,6.7533703L1.3273419,1.4709644Z" fill="#39CDB9" fill-opacity="1" style="mix-blend-mode:passthrough"/></g></svg>