<svg height="105" viewBox="0 0 105 105" width="105" xmlns="http://www.w3.org/2000/svg" xmlns:xlink="http://www.w3.org/1999/xlink"><linearGradient id="a" gradientUnits="userSpaceOnUse" x1="99.03" x2="61.54" y1="59.18" y2="90.91"><stop offset="0" stop-color="#087cfa"/><stop offset=".02" stop-color="#0d7bfa"/><stop offset=".37" stop-color="#5566f9"/><stop offset=".66" stop-color="#8a57f8"/><stop offset=".88" stop-color="#ab4ef7"/><stop offset="1" stop-color="#b74af7"/></linearGradient><linearGradient id="b" x1="37.54" x2="60.33" xlink:href="#a" y1="34.26" y2="8.33"/><linearGradient id="c" gradientUnits="userSpaceOnUse" x1="17.84" x2="87.09" y1="88.36" y2="43.86"><stop offset="0" stop-color="#087cfa"/><stop offset=".1" stop-color="#1598d3"/><stop offset=".22" stop-color="#23b6aa"/><stop offset=".35" stop-color="#2dcc8b"/><stop offset=".46" stop-color="#35dd74"/><stop offset=".57" stop-color="#39e767"/><stop offset=".67" stop-color="#3bea62"/></linearGradient><path d="m89.06 41.63 11.44 25.37-19.58 33.5-12.06-29.28z" fill="url(#a)"/><path d="m68.86 71.22 12.06 29.28-30.34-10.43z" fill="#b74af7"/><path d="m72.13 31.61-6.22-27.11h-34.49l-26.92 41.18 7.79 18.92-7.79 17.27 55.75-47.43z" fill="url(#b)"/><path d="m100.5 24.88-40.25 9.56-55.75 47.43 35.96 18.63 28.4-29.28z" fill="url(#c)"/><path d="m22.5 22.5h60v60h-60z"/><g fill="#fff"><path d="m28.13 71.25h22.5v3.75h-22.5z"/><path d="m26.44 42.81v-.07a12.7 12.7 0 0 1 12.97-12.74 13.62 13.62 0 0 1 9.73 3.39l-3.43 4.14a9.13 9.13 0 0 0 -6.47-2.53c-4 0-7.11 3.5-7.11 7.7v.07c0 4.53 3.11 7.85 7.5 7.85a8.67 8.67 0 0 0 5.12-1.49v-3.56h-5.48v-4.7h10.73v10.74a16.07 16.07 0 0 1 -10.57 3.93c-7.69 0-12.99-5.41-12.99-12.73z"/><path d="m52.3 42.81v-.07a12.79 12.79 0 0 1 13.19-12.74c7.63 0 13.11 5.69 13.11 12.72v.07a12.79 12.79 0 0 1 -13.18 12.8c-7.64-.05-13.12-5.74-13.12-12.78zm20.61 0v-.07a7.51 7.51 0 0 0 -7.49-7.74 7.4 7.4 0 0 0 -7.42 7.67v.07a7.52 7.52 0 0 0 7.5 7.78 7.4 7.4 0 0 0 7.41-7.71z"/></g></svg>