<?xml version="1.0" encoding="UTF-8"?>
<!DOCTYPE svg PUBLIC "-//W3C//DTD SVG 1.1//EN" "http://www.w3.org/Graphics/SVG/1.1/DTD/svg11.dtd">
<svg xmlns="http://www.w3.org/2000/svg" version="1.1" width="1024px" height="1024px" style="shape-rendering:geometricPrecision; text-rendering:geometricPrecision; image-rendering:optimizeQuality; fill-rule:evenodd; clip-rule:evenodd" xmlns:xlink="http://www.w3.org/1999/xlink">
<g><path style="opacity:0.998" fill="#5dc76c" d="M 951.5,763.5 C 940.739,755.276 929.405,747.776 917.5,741C 908.477,736.319 899.143,732.485 889.5,729.5C 885.844,625.779 840.844,545.613 754.5,489C 674.802,441.453 590.135,430.12 500.5,455C 419.755,480.605 359.588,530.771 320,605.5C 278.585,565.816 230.752,555.649 176.5,575C 131.948,594.935 106.448,629.102 100,677.5C 99.3333,685.833 99.3333,694.167 100,702.5C 102.081,714.824 105.081,726.824 109,738.5C 95.4882,745.492 82.9882,753.826 71.5,763.5C 37.7121,705.639 16.5454,643.306 8,576.5C -9.41698,416.759 35.9164,278.093 144,160.5C 244.661,58.2827 367.161,5.94939 511.5,3.5C 678.975,7.48829 814.142,74.8216 917,205.5C 1011.33,336.426 1040,480.759 1003,638.5C 991.564,682.671 974.397,724.337 951.5,763.5 Z"/></g>
<g><path style="opacity:0.999" fill="#fefefe" d="M 951.5,763.5 C 949.28,768.272 946.78,772.938 944,777.5C 938.305,786.913 932.138,795.913 925.5,804.5C 915.954,796.888 905.288,791.055 893.5,787C 878.282,782.958 863.115,778.791 848,774.5C 854.013,716.891 841.346,663.891 810,615.5C 768.341,553.228 711.174,512.395 638.5,493C 560.311,479.566 490.311,497.566 428.5,547C 411.963,560.536 397.13,575.703 384,592.5C 366.745,616.923 348.911,640.923 330.5,664.5C 310.135,651.302 290.469,637.135 271.5,622C 238.448,602.307 206.782,604.307 176.5,628C 159.375,642.752 148.875,661.252 145,683.5C 143.968,692.716 144.968,701.716 148,710.5C 154.334,725.339 160.167,740.339 165.5,755.5C 138.118,764.688 114.451,779.688 94.5,800.5C 85.653,788.968 77.9863,776.635 71.5,763.5C 82.9882,753.826 95.4882,745.492 109,738.5C 105.081,726.824 102.081,714.824 100,702.5C 99.3333,694.167 99.3333,685.833 100,677.5C 106.448,629.102 131.948,594.935 176.5,575C 230.752,555.649 278.585,565.816 320,605.5C 359.588,530.771 419.755,480.605 500.5,455C 590.135,430.12 674.802,441.453 754.5,489C 840.844,545.613 885.844,625.779 889.5,729.5C 899.143,732.485 908.477,736.319 917.5,741C 929.405,747.776 940.739,755.276 951.5,763.5 Z"/></g>
<g><path style="opacity:0.998" fill="#5dc76c" d="M 925.5,804.5 C 850.791,908.608 750.791,975.775 625.5,1006C 609.308,1009.7 592.975,1012.53 576.5,1014.5C 615.708,969.938 655.042,925.438 694.5,881C 664.168,880.5 633.835,880.333 603.5,880.5C 603.5,811.167 603.5,741.833 603.5,672.5C 542.167,672.5 480.833,672.5 419.5,672.5C 419.5,741.5 419.5,810.5 419.5,879.5C 388.493,879.167 357.493,879.5 326.5,880.5C 326.624,881.107 326.957,881.44 327.5,881.5C 366.805,925.808 406.138,970.141 445.5,1014.5C 318.63,996.317 212.796,939.651 128,844.5C 115.85,830.525 104.683,815.859 94.5,800.5C 114.451,779.688 138.118,764.688 165.5,755.5C 160.167,740.339 154.334,725.339 148,710.5C 144.968,701.716 143.968,692.716 145,683.5C 148.875,661.252 159.375,642.752 176.5,628C 206.782,604.307 238.448,602.307 271.5,622C 290.469,637.135 310.135,651.302 330.5,664.5C 348.911,640.923 366.745,616.923 384,592.5C 397.13,575.703 411.963,560.536 428.5,547C 490.311,497.566 560.311,479.566 638.5,493C 711.174,512.395 768.341,553.228 810,615.5C 841.346,663.891 854.013,716.891 848,774.5C 863.115,778.791 878.282,782.958 893.5,787C 905.288,791.055 915.954,796.888 925.5,804.5 Z"/></g>
<g><path style="opacity:0.999" fill="#fefefe" d="M 576.5,1014.5 C 532.836,1019.82 489.169,1019.82 445.5,1014.5C 406.138,970.141 366.805,925.808 327.5,881.5C 358.167,880.833 388.833,880.167 419.5,879.5C 419.5,810.5 419.5,741.5 419.5,672.5C 480.833,672.5 542.167,672.5 603.5,672.5C 603.5,741.833 603.5,811.167 603.5,880.5C 633.835,880.333 664.168,880.5 694.5,881C 655.042,925.438 615.708,969.938 576.5,1014.5 Z"/></g>
<g><path style="opacity:1" fill="#ade2b5" d="M 419.5,879.5 C 388.833,880.167 358.167,880.833 327.5,881.5C 326.957,881.44 326.624,881.107 326.5,880.5C 357.493,879.5 388.493,879.167 419.5,879.5 Z"/></g>
</svg>
